HIERARCHY
ROOT Hips
{
  OFFSET 0.0 0.0 0.0
  CHANNELS 6 XPOSITION YPOSITION ZPOSITION ZROTATION XROTATION YROTATION 
  JOINT LeftUpLeg
  {
    OFFSET 0.089458 -0.0866707 0.00101652
    CHANNELS 3 ZROTATION XROTATION YROTATION 
    JOINT LeftLeg
    {
      OFFSET 0.0 -0.444227 0.013727
      CHANNELS 3 ZROTATION XROTATION YROTATION 
      JOINT LeftFoot
      {
        OFFSET -0.00253549 -0.420924 -0.0146059
        CHANNELS 3 ZROTATION XROTATION YROTATION 
        End Site
        {
          OFFSET -0.0004 -0.0441509 0.084991
        }
      }
    }
  }
  JOINT Spine
  {
    OFFSET 0.0 0.118905 0.0
    CHANNELS 3 ZROTATION XROTATION YROTATION 
    JOINT Spine1
    {
      OFFSET 0.0 0.256574 0.00127663
      CHANNELS 3 ZROTATION XROTATION YROTATION 
      End Site
      {
        OFFSET -0.0029 0.2150836 0.02525291
      }
      JOINT RightArm
      {
        OFFSET -0.162727 -0.05365632 0.00102123
        CHANNELS 3 ZROTATION XROTATION YROTATION 
        JOINT RightForeArm
        {
          OFFSET -0.26364 0.00099144 -0.0142434
          CHANNELS 3 ZROTATION XROTATION YROTATION 
          End Site
          {
            OFFSET -0.220324 0.00085362 0.0102216
          }
        }
      }
      JOINT LeftArm
      {
        OFFSET 0.162727 -0.0536563199 0.00102123
        CHANNELS 3 ZROTATION XROTATION YROTATION 
        JOINT LeftForeArm
        {
          OFFSET 0.262597 0.00099144 -0.0142434
          CHANNELS 3 ZROTATION XROTATION YROTATION 
          End Site
          {
            OFFSET 0.220902 0.00085362 0.0102216
          }
        }
      }
    }
  }
  JOINT RightUpLeg
  {
    OFFSET -0.089458 -0.0866707 0.00101652
    CHANNELS 3 ZROTATION XROTATION YROTATION 
    JOINT RightLeg
    {
      OFFSET 0.0 -0.444227 0.013727
      CHANNELS 3 ZROTATION XROTATION YROTATION 
      JOINT RightFoot
      {
        OFFSET 0.00253549 -0.420924 -0.0146059
        CHANNELS 3 ZROTATION XROTATION YROTATION 
        End Site
        {
          OFFSET 0.0004 -0.0441509 0.084991
        }
      }
    }
  }
}
MOTION
Frames: 19
Frame Time: 0.033333
1.88002496535 0.985161396325 0.0641356087404 -3.50068155106 -0.457625555877 -93.3148025917 -1.6719800429 2.95026990302 2.19282006676 -0.485121015989 7.83411001102 19.0017006766 -1.3905777432 -34.0367109362 0.0114957403141 0.97220603153 6.62831012249 0.607203016801 -1.75024003024 1.0658299958 1.06366002336 78.6848652386 -11.4477257518 5.12006732308 6.68672019272 31.8612000629 12.12419964 -72.2204190383 3.41397891629 -3.26560885139 -2.47613994207 28.5497006646 -19.162799226 -1.7020100368 3.56236989865 -4.97897994738 0.173442995658 9.48226966246 -11.0050996115 2.88924707199 -36.4534982419 -0.0692631807948 
1.88026985854 0.981230499366 0.0638212903122 -3.51529495423 -0.466809332185 -93.3285107814 -1.67566002075 2.94185788473 2.18886346624 -0.484190509437 7.83586707718 19.0100796112 -1.38534773928 -34.0352390304 0.0115318564401 0.962143775501 6.6317666251 0.605390828876 -1.73947682605 1.0548597515 1.0592302188 78.6797084458 -11.5013862792 5.10865236943 6.71558756036 31.8871581968 12.0766674998 -72.2252753028 3.41174715198 -3.25441289068 -2.47578583945 28.5678501848 -19.1578900275 -1.70450156174 3.55104267025 -4.9788915818 0.172691581468 9.48953100732 -10.9979296204 2.88168285092 -36.4577329592 -0.0693012137427 
1.88073304395 0.981117168816 0.0633140777388 -3.53028978078 -0.499769583964 -93.3462692732 -1.68880770802 2.91482506321 2.16653963327 -0.468432515969 7.86477158397 19.047316095 -1.37796099642 -34.0463210124 0.0116916863685 0.941721936769 6.65608295231 0.596652082081 -1.7204827103 1.02470937551 1.04610686408 78.6630496144 -11.8538795357 5.06239619394 6.80852551751 32.2347601841 11.8415459216 -72.2427264361 3.35053883862 -3.21373633941 -2.48210333754 28.7148802519 -19.1077718069 -1.70789264394 3.52422670723 -4.97653047078 0.168470818046 9.51198183912 -10.9747957697 2.87143692684 -36.4692452431 -0.0694840947258 
1.88120801701 0.981083206989 0.0626890239294 -3.56358439167 -0.527341029931 -93.3932609747 -1.69797787731 2.90031624731 2.14006091084 -0.43923988725 7.91594165369 19.108839024 -1.39279734123 -34.0843822415 0.0114941511612 0.926716651493 6.66700143659 0.589564586878 -1.70621519217 1.05393959695 1.03734511876 78.6382560277 -12.6016571838 5.00586314506 6.94604881513 33.05241579 11.3981385784 -72.2709692683 3.1166405046 -3.18925011123 -2.55449074958 29.0726831267 -18.9239338503 -1.69940869522 3.51615683873 -4.96464892984 0.157330152519 9.52815145821 -10.9427357155 2.87972087909 -36.4763452247 -0.0696505805868 
1.8815834584 0.981054116583 0.0619059843526 -3.60836289842 -0.553804811314 -93.4779075091 -1.69402362467 2.91951484185 2.13715381158 -0.420184833405 7.94738016066 19.1829414538 -1.44048155987 -34.136175566 0.00973011390208 0.877601668306 6.61185150102 0.599996420175 -1.63611290529 1.19592802402 1.03540118289 78.5932041 -13.469511265 4.97442036922 7.12826844379 33.8969652658 10.8768892768 -72.3224825551 2.66980440646 -3.21517772276 -2.76151250267 29.5788991819 -18.5524501066 -1.67946358235 3.52963237508 -4.94033132196 0.136396769971 9.53025601025 -10.8943498017 2.89989576379 -36.4882399991 -0.0694873764183 
1.8820062515 0.981002331491 0.0609813384043 -3.64299537261 -0.597974310655 -93.5835910261 -1.69860678832 2.93705092566 2.14275221882 -0.414849922055 7.95760495385 19.2721761678 -1.44032137059 -34.2302750822 0.0133914613193 0.744732130752 6.54685243267 0.618756068339 -1.4574459355 1.33086684209 1.01653801467 78.5107568865 -14.2134955967 4.93612691364 7.36097085438 34.4257243604 10.3702839008 -72.4117941086 2.103750558 -3.22030335285 -3.06259705968 30.1676444129 -18.0610077506 -1.6721290264 3.52014609609 -4.91738786276 0.110657415528 9.549961106 -10.8182845462 2.99589535323 -36.5417408709 -0.0555191092921 
1.88254029226 0.980938468442 0.0601321679762 -3.66638663608 -0.656278246153 -93.6635383904 -1.72170478055 2.93407659172 2.13546227254 -0.413097471604 7.96100894938 19.3556308342 -1.38332899149 -34.3067902764 0.020689333352 0.58682376003 6.54210972007 0.622436259641 -1.27002917321 1.35644013756 0.978013506594 78.4195670309 -14.8690144646 4.86255254278 7.56727074184 34.9033321683 9.9103611602 -72.5038172473 1.49889664603 -3.16961139638 -3.36118710354 30.8657887838 -17.5497458931 -1.68901602879 3.48269574199 -4.91250598505 0.0934647688398 9.59309887325 -10.7494481922 3.13599213807 -36.5903923084 -0.0367662646369 
1.88304656629 0.980920852187 0.0595258644259 -3.68403157603 -0.702818568188 -93.702122129 -1.74157838988 2.92310602725 2.12223240956 -0.409672692025 7.9622716806 19.4155572064 -1.36489228321 -34.3307744856 0.0219719298198 0.50073722967 6.54782872284 0.609589047338 -1.19931024832 1.35061430636 0.947924922474 78.3578631019 -15.5848934217 4.78526553723 7.6767535516 35.6898865078 9.49515396055 -72.5531243829 0.811349420326 -3.13601113453 -3.65328291816 31.6998983155 -17.0154048264 -1.70765390749 3.44697556017 -4.91727815285 0.0870677630736 9.63044378631 -10.7208612892 3.23087926045 -36.6110741212 -0.0296394458207 
1.88341351943 0.980890833592 0.0591084167652 -3.68976637361 -0.723531703816 -93.7347772634 -1.74445646084 2.90012500201 2.11241401263 -0.40097089762 7.98246342734 19.4692356631 -1.41540163885 -34.3640853182 0.0185424361422 0.47873446895 6.5137938902 0.598960099051 -1.20518218329 1.38751408319 0.937420518418 78.3094985324 -16.286336774 4.72580191032 7.70258532704 36.5829439871 9.17018380513 -72.5746258185 0.0640435889177 -3.14954408715 -3.9794803732 32.5069056565 -16.453399786 -1.70507145565 3.41944178697 -4.90908619471 0.0818292747844 9.64831924514 -10.7042955191 3.26258457169 -36.653636445 -0.0281879539159 
1.88376896107 0.980859101842 0.0587788790502 -3.69082419916 -0.733999982575 -93.7810108139 -1.74535623154 2.85642267694 2.09898137841 -0.385105888962 8.03516772829 19.5271061484 -1.47681709904 -34.3866351878 0.0137787702311 0.454664402067 6.52432476124 0.591416421917 -1.18293188158 1.37313770892 0.923218207256 78.2472276977 -16.7064668325 4.64775077735 7.6885749015 37.0938216464 9.02359001629 -72.6106209154 -0.488682052507 -3.11097635679 -4.24924723221 33.0045566545 -16.0310516236 -1.69375415236 3.39031231082 -4.89378315588 0.0764426567677 9.65754768449 -10.6618843133 3.19749478989 -36.6904614099 -0.032065723781 
1.88416760422 0.980857994826 0.0585971333008 -3.69883857238 -0.741105407024 -93.817880175 -1.75044973839 2.81775953737 2.08503904133 -0.372176287502 8.0835322978 19.5645031416 -1.48560371052 -34.3925911127 0.010218721723 0.446164018202 6.62651207519 0.569031971016 -1.17221115262 1.25991174206 0.89593843171 78.2081999968 -16.7133465405 4.55155481997 7.6704783153 37.0678566823 9.05884147637 -72.6503521258 -0.651998492308 -2.96691229927 -4.31402218497 33.1374311546 -15.9253749367 -1.69278693354 3.3675300014 -4.89361368181 0.0809120417439 9.66050430262 -10.6164814845 3.09309193333 -36.673532786 -0.0376219592738 
1.88438313653 0.980863694178 0.0586329601847 -3.703600068 -0.733254104573 -93.8416697239 -1.74548109594 2.80310067075 2.0864279176 -0.370809235812 8.1035729266 19.5799496144 -1.50304139691 -34.4092123781 0.00554865908549 0.507102112203 6.68729648993 0.537024210462 -1.26907049213 1.20114981036 0.88335727662 78.2382801499 -16.4379123321 4.52121255835 7.70330847331 36.6726038803 9.14667514778 -72.6502838239 -0.615105812475 -2.83066816801 -4.22490998753 33.1556165333 -16.0188460755 -1.68937834898 3.35718610679 -4.8926937407 0.0848650804271 9.65689369387 -10.6043365544 3.03689527128 -36.6577311434 -0.0427838213782 
1.88432201353 0.980806996428 0.0587684575215 -3.69971155593 -0.721113976932 -93.8760733868 -1.7415770025 2.78900059898 2.0945611788 -0.370225254638 8.14281407093 19.6129001545 -1.58188376461 -34.4448727957 -0.00164478482012 0.583723281034 6.64324561177 0.524407997291 -1.41177406135 1.25967631398 0.900647847143 78.3032215886 -16.087013071 4.59236520026 7.8138883822 36.0936736312 9.1812384663 -72.6133598212 -0.673137767706 -2.79952463983 -4.18600053427 33.2401196337 -16.0398437846 -1.67638241998 3.34485654812 -4.86375294853 0.0611585076742 9.67906704924 -10.6072325546 3.06961230429 -36.7450038855 -0.0435401247566 
1.88425564852 0.980668989253 0.0588922195695 -3.71766300061 -0.742065262046 -93.8996990111 -1.77927559129 2.7671079217 2.0810145658 -0.362029027634 8.235952238 19.6620433656 -1.64964543103 -34.4881932705 -0.00783290379561 0.580798892852 6.67524504803 0.534665287238 -1.48197133054 1.2277269302 0.922642763818 78.3525287242 -15.7649901422 4.66838008308 7.91912879071 35.5426754406 9.21362124693 -72.5835665361 -0.781982861907 -2.79663995213 -4.23308871218 33.2974044302 -15.9722061288 -1.69783284251 3.31208978279 -4.8446561665 0.0231092196826 9.79802077005 -10.591838162 3.16261642889 -36.9131460674 -0.0372207957169 
1.88430232751 0.980415428011 0.0591230298351 -3.77104050209 -0.807770401201 -93.869837424 -1.87000462257 2.74065609315 2.03818010164 -0.3553361893 8.39431871164 19.6821668104 -1.73188528423 -34.6148454683 -0.0141112658743 0.527630459197 6.87641546343 0.543154305242 -1.54703421847 1.003622874 0.937740043205 78.4123885021 -15.4456531853 4.66874592508 7.91596043671 35.1770041879 9.35016185108 -72.5670511387 -0.706230888009 -2.74127806725 -4.17954856682 33.2355160862 -16.0462744077 -1.79238656629 3.2185443657 -4.88523175904 -0.000274304512732 10.1151438919 -10.5741069909 3.31234271324 -37.1454920275 -0.0219010599371 
1.88406001915 0.979813031234 0.0595651080477 -3.81278149566 -0.891773670503 -93.7929841355 -1.99475589333 2.60793719328 1.95708974793 -0.326737333471 8.79954615114 19.6955539812 -2.07093576791 -35.0221808749 -0.037538569601 0.511181869572 7.0203126082 0.545189381449 -1.74650039495 0.847059890463 0.972333350525 78.5128127734 -14.9555290557 4.67264468244 7.83974918595 34.6924159267 9.628419489 -72.533303174 -0.410511497952 -2.70037227776 -3.92401283384 33.1000119632 -16.3613681096 -1.92296313463 2.99032789529 -4.92793879748 -0.0505538719255 10.7513410084 -10.6188046026 3.76919805856 -37.7208671632 0.0289150355571 
1.8830646939 0.978631781033 0.0600915340828 -3.82286242798 -0.976265084888 -93.6329049919 -2.16778656968 2.21450271572 1.77754477866 -0.189548861865 9.77785378275 19.7672453543 -2.73306220345 -35.8539135007 -0.0913041812362 0.512723678055 6.95280003024 0.5500500749 -1.99555673301 0.969968397525 1.0211009012 78.586380741 -14.0255672106 4.79921022219 7.78425048385 33.4072031362 10.1055867497 -72.4933670579 0.0657010970704 -2.73141356654 -3.58969769897 32.7689219583 -16.8102805852 -2.03923835407 2.63358647461 -4.894423913 -0.190467188804 11.766062086 -10.8014754506 5.05322410365 -39.0119026899 0.18534793534 
1.88112134025 0.976953847393 0.0607328153226 -3.87954061838 -1.05404973376 -93.228844661 -2.4182656148 1.62691424131 1.45096547336 0.121263685453 11.3488451032 19.8436205296 -3.38231885506 -37.0363148687 -0.159281985796 0.516446984927 6.87901221597 0.538558868591 -2.09186410785 1.20774030258 1.03121737186 78.5475442854 -12.5260128387 5.04066594709 7.71056042667 31.0438040042 10.9283427994 -72.5060780399 0.837334981745 -2.75371114597 -3.31360608479 31.9767839391 -17.3162285555 -2.16877353201 2.35494719987 -4.8857965303 -0.355860032792 13.0065081091 -11.1293851487 7.42535563259 -40.9698276419 0.547083638366 
1.87777075553 0.975105115817 0.0619422640883 -4.03025685326 -1.08809577217 -92.5431346495 -2.70067899594 1.15646425821 1.0350064193 0.546823397486 13.0390266397 19.8465677562 -3.80834614156 -38.3813976823 -0.241934451788 0.69225712138 6.91119265225 0.509315093494 -2.10495032342 1.39607593876 1.02509592153 78.4121631058 -10.6318434337 5.34259744756 7.52871005511 28.0841771689 12.1183299462 -72.6056143867 1.8147042094 -2.68381397822 -3.08752170062 30.8860607853 -17.8563633302 -2.35208321617 2.43149739877 -5.08256360812 -0.404985634789 14.0746720019 -11.4763100935 10.3772182503 -43.1891678391 1.1676836977 
